<svg xmlns="http://www.w3.org/2000/svg" version="1.1" xmlns:xlink="http://www.w3.org/1999/xlink" xmlns:svgjs="http://svgjs.dev/svgjs" width="1920" height="500" preserveAspectRatio="none" viewBox="0 0 1920 500">
    <g mask="url(&quot;#SvgjsMask1004&quot;)" fill="none">
        <path d="M0 29.41C37.27 20.47 75.59 103.38 125 95C162.33 88.67 137.08 27.66 173.47 0C199.58 -19.84 211.74 0 250 0C312.5 0 312.5 0 375 0C427.09 0 479.17 -21.57 479.17 0C479.17 30.51 428.16 53.29 375 104.17C362.85 115.79 352.17 109.55 348.56 125C335.13 182.47 330.56 198.6 340.91 250C343.78 264.22 357.9 256.25 375 256.25C395.78 256.25 397.37 257.78 416.67 250C459.87 232.59 461.97 205.88 500 205.88C524.47 205.88 515.83 236.39 541.67 250C578.33 269.32 583.11 271.74 625 271.74C674.78 271.74 717.18 280.99 725 250C735.7 207.62 694.69 186.87 662.04 125C644.69 92.11 649.1 88.07 625 60.48C594.52 25.57 552.88 17.12 552.88 0C552.88 -13.12 588.94 0 625 0C687.5 0 687.5 0 750 0C812.5 0 812.5 0 875 0C937.5 0 937.5 0 1000 0C1062.5 0 1062.5 0 1125 0C1187.5 0 1187.5 0 1250 0C1312.5 0 1312.5 0 1375 0C1437.5 0 1437.5 0 1500 0C1562.5 0 1562.5 0 1625 0C1670.53 0 1716.05 -22.27 1716.05 0C1716.05 36.26 1671.19 59.14 1625 117.06C1621.35 121.64 1616.38 120.88 1616.38 125C1616.38 129.4 1619.01 132.62 1625 134.09C1685.82 149.02 1690.72 160.95 1750 157.81C1776.66 156.4 1782.68 148.63 1796.88 125C1830.1 69.72 1812.95 51.01 1844.83 0C1852.01 -11.49 1859.91 0 1875 0C1937.5 0 1968.75 -31.25 2000 0C2031.25 31.25 2000 62.5 2000 125C2000 187.5 2000 187.5 2000 250C2000 312.5 2000 312.5 2000 375C2000 422.97 2010.81 427.67 2000 470.93C1995.19 490.17 1988.3 495.45 1968.75 500C1925.8 509.99 1921.88 500 1875 500C1812.5 500 1812.5 500 1750 500C1687.5 500 1687.5 500 1625 500C1562.5 500 1562.5 500 1500 500C1475 500 1474.28 504.65 1450 500C1411.78 492.68 1413.26 484.97 1375 476.06C1313.26 461.68 1303.77 445.07 1250 453.43C1226.79 457.04 1243.76 491.54 1221.04 500C1181.26 514.82 1173.02 500 1125 500C1062.5 500 1062.5 500 1000 500C937.5 500 937.5 500 875 500C812.5 500 812.5 500 750 500C715.72 500 714.37 506.49 681.45 500C651.87 494.17 651.8 490.39 625 475.35C561.08 439.47 548.22 391.13 500 398.15C463.54 403.46 491.86 470.5 455.65 500C429.36 521.42 415.33 500 375 500C312.5 500 312.5 500 250 500C187.5 500 187.5 500 125 500C62.5 500 31.25 531.25 0 500C-31.25 468.75 0 437.5 0 375C0 312.5 0 312.5 0 250C0 187.5 0 187.5 0 125C0 77.2 -25.23 35.47 0 29.41" stroke="rgba(255, 229, 0, 1)" stroke-width="2"></path>
        <path d="M875 75.4C851.96 75.4 825.4 98.66 825.4 125C825.4 155.35 852.32 188.78 875 188.78C895.72 188.78 912.2 155.81 912.2 125C912.2 99.12 895.36 75.4 875 75.4" stroke="rgba(255, 229, 0, 1)" stroke-width="2"></path>
        <path d="M1000 219.55C972.16 219.55 944.77 229.61 944.77 250C944.77 277.82 971 284.25 1000 315.97C1028.13 346.75 1025.48 351.39 1059.03 375C1087.98 395.38 1093.05 403.96 1125 403.96C1149.32 403.96 1171.57 393.59 1171.57 375C1171.57 349.42 1150.16 343.66 1125 315.63C1094.06 281.16 1095.74 277.95 1059.38 250C1033.24 229.91 1029.46 219.55 1000 219.55" stroke="rgba(255, 229, 0, 1)" stroke-width="2"></path>
        <path d="M1250 161.29C1209.35 164.65 1186.05 210.05 1186.05 250C1186.05 279.87 1213.69 298.64 1250 300.93C1308.16 304.59 1323.52 244.42 1375 261.9C1432.59 281.46 1429.63 313.81 1468.14 375C1492.13 413.12 1479.27 460.53 1500 460.53C1523.22 460.53 1549.72 421.74 1556.03 375C1563.93 316.48 1549.84 308.21 1528.41 250C1521.83 232.12 1518.29 224.69 1500 222.83C1441.59 216.88 1433.05 248.67 1375 234.38C1308.05 217.9 1303.82 156.84 1250 161.29" stroke="rgba(255, 229, 0, 1)" stroke-width="2"></path>
        <path d="M125 345.7C112.45 345.7 98.96 360.73 98.96 375C98.96 388.4 112.4 401.04 125 401.04C136.86 401.04 147.87 388.35 147.87 375C147.87 360.68 136.9 345.7 125 345.7" stroke="rgba(255, 229, 0, 1)" stroke-width="2"></path>
        <path d="M0 75.37C23.51 75.37 39.65 96.71 73.37 125C102.15 149.14 97.31 180.23 125 180.23C157.05 180.23 170.56 160.82 192.86 125C226.68 70.7 211.18 57.02 237.24 0C239.75 -5.48 243.62 0 250 0C312.5 0 312.5 0 375 0C403.41 0 431.82 -11.77 431.82 0C431.82 16.64 405.23 30.46 375 56.82C333.55 92.96 326.3 86.01 288.46 125C263.8 150.4 270.98 156.56 250 185.61C225.84 219.06 198.17 221.53 198.17 250C198.17 271.74 220.64 276.34 250 286.02C309.06 305.5 318.96 283.64 375 308.33C419.92 328.13 445.38 333.53 451.92 375C460.5 429.36 436.59 449.05 405.24 500C398.13 511.55 390.12 500 375 500C312.5 500 312.5 500 250 500C187.5 500 187.5 500 125 500C62.5 500 31.25 531.25 0 500C-31.25 468.75 0 437.5 0 375C0 312.5 0 312.5 0 250C0 187.5 0 187.5 0 125C0 100.19 -13.17 75.37 0 75.37" stroke="rgba(255, 229, 0, 1)" stroke-width="2"></path>
        <path d="M719.91 125C692.72 64.4 663.54 39.65 673.08 0C678.58 -22.85 711.54 0 750 0C812.5 0 812.5 0 875 0C908.86 0 942.71 -6.23 942.71 0C942.71 6.67 903.42 4.51 875 25.79C819.96 67.01 821.13 72.18 775.79 125C758.63 145 763.68 171.43 750 171.43C735.74 171.43 731.18 150.12 719.91 125" stroke="rgba(255, 229, 0, 1)" stroke-width="2"></path>
        <path d="M949.4 125C949.4 81.04 971.23 75.24 1000 30.56C1011.48 12.74 1010.51 4.74 1029.89 0C1073.01 -10.54 1077.45 0 1125 0C1162.72 0 1197.99 -21.95 1200.43 0C1204.94 40.55 1167.56 61.64 1138.89 125C1129.85 144.97 1142.99 159.61 1125 166.67C1073.54 186.86 1055.16 192.58 1000 179.49C967.36 171.74 949.4 155.51 949.4 125" stroke="rgba(255, 229, 0, 1)" stroke-width="2"></path>
        <path d="M1355.26 125C1355.26 114.33 1369.58 114.72 1375 100C1392.61 52.22 1369.34 25.58 1401.32 0C1431.84 -24.42 1450.66 0 1500 0C1562.5 0 1562.5 0 1625 0C1651.24 0 1677.47 -12.83 1677.47 0C1677.47 20.9 1653.83 36.12 1625 67.46C1596.34 98.62 1594.37 96.93 1562.5 125C1531.87 151.97 1535.91 175.3 1500 177.54C1442.16 181.16 1436.61 159.09 1375 136.72C1364.24 132.82 1355.26 132.69 1355.26 125" stroke="rgba(255, 229, 0, 1)" stroke-width="2"></path>
        <path d="M1852.68 125C1870.48 108.41 1863.94 102.73 1875 80.36C1894.84 40.23 1882.51 20.55 1914.47 0C1945.01 -19.63 1978.25 -21.01 2000 0C2021.01 20.3 2019.55 53.31 2000 82.63C1977.88 115.81 1916.67 104.48 1916.67 125C1916.67 145.2 1978.45 131.74 2000 164.06C2020.12 194.24 2000 207.03 2000 250C2000 312.5 2000 312.5 2000 375C2000 404.79 2013.46 410.66 2000 434.59C1978.31 473.16 1969.51 479.16 1929.69 500C1907.01 511.87 1902.35 500 1875 500C1825.28 500 1818.48 512.87 1775.57 500C1755.98 494.12 1765.17 479.27 1750 462.5C1708.64 416.77 1707.17 417.76 1662.5 375C1644.67 357.94 1638.86 362.84 1625 342.86C1595.49 300.34 1575.76 293.87 1575.76 250C1575.76 217.9 1591.84 201.02 1625 190.91C1678.96 174.46 1693.12 213.34 1750 196.88C1806.96 180.39 1807.98 166.67 1852.68 125" stroke="rgba(255, 229, 0, 1)" stroke-width="2"></path>
        <path d="M125 296.88C91.53 296.88 55.56 336.96 55.56 375C55.56 410.74 91.4 444.44 125 444.44C156.61 444.44 185.98 410.6 185.98 375C185.98 336.82 156.74 296.88 125 296.88" stroke="rgba(255, 229, 0, 1)" stroke-width="2"></path>
        <path d="M548.08 375C548.08 346.28 581.31 333.45 625 317.03C682.27 295.5 689.18 314.71 750 299.11C814.18 282.65 822.93 235.73 875 252.91C937.93 273.67 973.5 310.71 980 375C986 434.25 944.93 446.51 900 500C892.43 509.01 887.5 500 875 500C862.5 500 862.23 502.33 850 500C799.73 490.42 799.09 491.17 750 476.19C686.59 456.84 683.77 460.79 625 431.34C582.81 410.2 548.08 403.43 548.08 375" stroke="rgba(255, 229, 0, 1)" stroke-width="2"></path>
        <path d="M1232.84 375C1232.84 366.78 1238.86 361.83 1250 358.8C1309.94 342.49 1318.76 330.5 1375 336.31C1397.19 338.6 1406.86 356.1 1406.86 375C1406.86 392.73 1396.29 407.24 1375 409.57C1317.86 415.82 1309.62 406.66 1250 392.16C1238.54 389.37 1232.84 383.46 1232.84 375" stroke="rgba(255, 229, 0, 1)" stroke-width="2"></path>
        <path d="M1875 325C1857.64 325 1834.68 352.93 1834.68 375C1834.68 391.82 1856.55 402.78 1875 402.78C1888.96 402.78 1899.51 390.54 1899.51 375C1899.51 351.65 1890.05 325 1875 325" stroke="rgba(255, 229, 0, 1)" stroke-width="2"></path>
        <path d="M1021.74 500C1021.74 484.53 1077.37 442.07 1125 442.07C1157.96 442.07 1182.93 483.03 1182.93 500C1182.93 512 1153.97 500 1125 500C1073.37 500 1021.74 513.49 1021.74 500" stroke="rgba(255, 229, 0, 1)" stroke-width="2"></path>
        <path d="M0 121.32C1.74 121.32 3.21 122.59 5.43 125C62.42 186.93 116.72 186.67 118.42 250C120.08 311.67 59.39 309.27 12.15 375C0.18 391.66 3.11 414.77 0 414.77C-2.97 414.77 0 394.88 0 375C0 312.5 0 312.5 0 250C0 187.5 0 187.5 0 125C0 123.16 -0.98 121.32 0 121.32" stroke="rgba(255, 229, 0, 1)" stroke-width="2"></path>
        <path d="M375 9.47C363.52 9.47 350 2.45 350 0C350 -2.29 362.5 0 375 0C379.74 0 384.47 -1.96 384.47 0C384.47 2.77 380.75 9.47 375 9.47" stroke="rgba(255, 229, 0, 1)" stroke-width="2"></path>
        <path d="M986.61 125C986.61 113.36 990.37 100 1000 100C1014.65 100 1035.16 114.52 1035.16 125C1035.16 134.23 1015.99 139.42 1000 139.42C991.72 139.42 986.61 133.07 986.61 125" stroke="rgba(255, 229, 0, 1)" stroke-width="2"></path>
        <path d="M1125 37.88C1112.41 37.88 1097.83 11.97 1097.83 0C1097.83 -6.97 1111.41 0 1125 0C1135.78 0 1146.55 -6.27 1146.55 0C1146.55 12.67 1136.77 37.88 1125 37.88" stroke="rgba(255, 229, 0, 1)" stroke-width="2"></path>
        <path d="M1480.77 125C1461.89 68.06 1448.99 46.49 1456.14 0C1458.6 -16.01 1478.07 0 1500 0C1562.5 0 1562.5 0 1625 0C1631.95 0 1638.89 -3.4 1638.89 0C1638.89 5.53 1633.15 10.04 1625 17.86C1568.02 72.54 1566.97 71.61 1508.62 125C1504.47 128.8 1504.93 132.25 1500 132.25C1491 132.25 1483.82 134.18 1480.77 125" stroke="rgba(255, 229, 0, 1)" stroke-width="2"></path>
        <path d="M2000 29.66C1990.94 29.66 1969.3 8.63 1969.3 0C1969.3 -6.2 1992.19 -7.54 2000 0C2007.54 7.29 2006.29 29.66 2000 29.66" stroke="rgba(255, 229, 0, 1)" stroke-width="2"></path>
        <path d="M1623.11 250C1623.11 248.77 1623.54 247.89 1625 247.73C1686.99 240.86 1687.96 235.18 1750 235.94C1780.07 236.31 1809.21 231.53 1809.21 250C1809.21 281.83 1787.89 335.81 1750 336.54C1695.79 337.59 1686.78 295.71 1625 253.57C1623.34 252.44 1623.11 251.69 1623.11 250" stroke="rgba(255, 229, 0, 1)" stroke-width="2"></path>
        <path d="M1918.1 250C1926.04 217.17 1971.01 212.89 2000 212.89C2011.96 212.89 2000 231.44 2000 250C2000 312.5 2000 312.5 2000 375C2000 386.63 2006.62 398.26 2000 398.26C1987.01 398.26 1971.29 394.02 1960.78 375C1930.34 319.89 1906.43 298.23 1918.1 250" stroke="rgba(255, 229, 0, 1)" stroke-width="2"></path>
        <path d="M224.09 375C238.34 358.02 230.44 340.87 250 338.98C305.9 333.58 314.68 345.1 375 360.42C385.59 363.11 391.83 365.38 391.83 375C391.83 398.4 389.26 404 375 426.47C349.59 466.5 350.43 477.69 312.5 500C287.93 514.45 281.25 500 250 500C187.5 500 187.5 500 125 500C105.12 500 85.23 502.97 85.23 500C85.23 496.89 109.94 501.4 125 487.85C179.37 438.9 175.84 432.46 224.09 375" stroke="rgba(255, 229, 0, 1)" stroke-width="2"></path>
        <path d="M608.17 375C608.17 368.72 614.79 363.77 625 362.32C685.7 353.72 688.28 363.98 750 354.91C813.28 345.61 819.45 318.92 875 325.58C903.2 328.96 917.5 349.91 917.5 375C917.5 401.19 904.1 423.48 875 428.13C820.35 436.87 812.97 412.07 750 401.79C687.97 391.66 685.83 398.81 625 387.32C614.92 385.42 608.17 381.22 608.17 375" stroke="rgba(255, 229, 0, 1)" stroke-width="2"></path>
        <path d="M1089.67 500C1089.67 494.71 1108.7 480.18 1125 480.18C1136.28 480.18 1144.82 494.19 1144.82 500C1144.82 504.1 1134.91 500 1125 500C1107.34 500 1089.67 504.62 1089.67 500" stroke="rgba(255, 229, 0, 1)" stroke-width="2"></path>
        <path d="M1846.59 500C1846.59 491.9 1862.78 472.22 1875 472.22C1884.8 472.22 1890.63 490.68 1890.63 500C1890.63 504.57 1882.82 500 1875 500C1860.8 500 1846.59 505.79 1846.59 500" stroke="rgba(255, 229, 0, 1)" stroke-width="2"></path>
    </g>
    <defs>
        <mask id="SvgjsMask1004">
            <rect width="1920" height="500" fill="#ffffff"></rect>
        </mask>
    </defs>
</svg>